<svg xmlns="http://www.w3.org/2000/svg" viewBox="0 0 640 640">
  <path fill="#132e62" d="M32 160c0-35.3 28.7-64 64-64h288c35.3 0 64 28.7 64 64v32h50.7c17 0 33.3 6.7 45.3 18.7l45.3 45.3c12 12 18.7 28.3 18.7 45.3v146.7c0 35.3-28.7 64-64 64h-3.3c-10.4 36.9-44.4 64-84.7 64s-73.9-27.1-84.4-64H268.7c-10.4 36.9-44.4 64-84.7 64s-73.9-27.1-84.4-64H96c-35.3 0-64-28.7-64-64V160zm512 192v-50.7L498.7 256H448v96h96zM224 488c0-22.1-17.9-40-40-40s-40 17.9-40 40 17.9 40 40 40 40-17.9 40-40zm232 40c22.1 0 40-17.9 40-40s-17.9-40-40-40-40 17.9-40 40 17.9 40 40 40z"/>
</svg>
